{
    "asset" : {
        "generator" : "Khronos glTF Blender I/O v3.4.49",
        "version" : "2.0"
    },
    "scene" : 0,
    "scenes" : [
        {
            "name" : "Scene",
            "nodes" : [
                0,
                1,
                2,
                3
            ]
        }
    ],
    "nodes" : [
        {
            "mesh" : 0,
            "name" : "book close_paper.001",
            "rotation" : [
                -0.7071068286895752,
                0,
                0,
                0.7071068286895752
            ],
            "scale" : [
                0.30180585384368896,
                0.30010518431663513,
                0.3088933229446411
            ],
            "translation" : [
                0,
                -0.06301327794790268,
                0
            ]
        },
        {
            "mesh" : 1,
            "name" : "book close_paper.002",
            "rotation" : [
                -0.6995211243629456,
                -0.10329629480838776,
                -0.10329630225896835,
                0.6995213031768799
            ],
            "scale" : [
                0.30180585384368896,
                0.30010518431663513,
                0.3088933229446411
            ],
            "translation" : [
                0,
                0.834769070148468,
                0
            ]
        },
        {
            "mesh" : 2,
            "name" : "book close_paper.016",
            "rotation" : [
                -0.26945751905441284,
                0.6537527441978455,
                0.6537527441978455,
                0.26945754885673523
            ],
            "scale" : [
                0.18108350038528442,
                0.18006309866905212,
                0.1266462504863739
            ],
            "translation" : [
                0.3491376042366028,
                1.78242826461792,
                0.29926079511642456
            ]
        },
        {
            "mesh" : 3,
            "name" : "Curve",
            "scale" : [
                233.1776580810547,
                233.1776580810547,
                233.1776580810547
            ],
            "translation" : [
                0,
                2.7837555408477783,
                0
            ]
        }
    ],
    "materials" : [
        {
            "doubleSided" : true,
            "name" : "book close_paper.001",
            "pbrMetallicRoughness" : {
                "baseColorFactor" : [
                    0.002428139094263315,
                    0.018500177189707756,
                    0.09989871829748154,
                    1
                ],
                "metallicFactor" : 0,
                "roughnessFactor" : 0.5
            }
        },
        {
            "doubleSided" : true,
            "name" : "book close.001",
            "pbrMetallicRoughness" : {
                "baseColorFactor" : [
                    0.0021246301475912333,
                    0.014443805441260338,
                    0.07618539035320282,
                    1
                ],
                "metallicFactor" : 0,
                "roughnessFactor" : 0.5
            }
        },
        {
            "doubleSided" : true,
            "name" : "book close_banner.001",
            "pbrMetallicRoughness" : {
                "baseColorFactor" : [
                    0.0021246301475912333,
                    0.014443805441260338,
                    0.07618539035320282,
                    1
                ],
                "metallicFactor" : 0,
                "roughnessFactor" : 0.5
            }
        },
        {
            "doubleSided" : true,
            "name" : "book close_paper.002",
            "pbrMetallicRoughness" : {
                "baseColorFactor" : [
                    0.002428139094263315,
                    0.018500177189707756,
                    0.09989871829748154,
                    1
                ],
                "metallicFactor" : 0,
                "roughnessFactor" : 0.5
            }
        },
        {
            "doubleSided" : true,
            "name" : "book close.002",
            "pbrMetallicRoughness" : {
                "baseColorFactor" : [
                    0.0021246301475912333,
                    0.014443805441260338,
                    0.07618539035320282,
                    1
                ],
                "metallicFactor" : 0,
                "roughnessFactor" : 0.5
            }
        },
        {
            "doubleSided" : true,
            "name" : "book close_banner.002",
            "pbrMetallicRoughness" : {
                "baseColorFactor" : [
                    0.0021246301475912333,
                    0.014443805441260338,
                    0.07618539035320282,
                    1
                ],
                "metallicFactor" : 0,
                "roughnessFactor" : 0.5
            }
        },
        {
            "doubleSided" : true,
            "name" : "book close_paper",
            "pbrMetallicRoughness" : {
                "baseColorFactor" : [
                    0.002428139094263315,
                    0.018500177189707756,
                    0.09989871829748154,
                    1
                ],
                "metallicFactor" : 0,
                "roughnessFactor" : 0.5
            }
        },
        {
            "doubleSided" : true,
            "name" : "book close",
            "pbrMetallicRoughness" : {
                "baseColorFactor" : [
                    0.0021246301475912333,
                    0.014443805441260338,
                    0.07618539035320282,
                    1
                ],
                "metallicFactor" : 0,
                "roughnessFactor" : 0.5
            }
        },
        {
            "doubleSided" : true,
            "name" : "book close_banner",
            "pbrMetallicRoughness" : {
                "baseColorFactor" : [
                    0.0021246301475912333,
                    0.014443805441260338,
                    0.07618539035320282,
                    1
                ],
                "metallicFactor" : 0,
                "roughnessFactor" : 0.5
            }
        },
        {
            "doubleSided" : true,
            "name" : "SVGMat",
            "pbrMetallicRoughness" : {
                "baseColorFactor" : [
                    0.8387988805770874,
                    0.26635515689849854,
                    0.47932007908821106,
                    1
                ],
                "metallicFactor" : 0,
                "roughnessFactor" : 0.4000000059604645
            }
        }
    ],
    "meshes" : [
        {
            "name" : "Cube.001",
            "primitives" : [
                {
                    "attributes" : {
                        "POSITION" : 0,
                        "TEXCOORD_0" : 1,
                        "NORMAL" : 2
                    },
                    "indices" : 3,
                    "material" : 0
                },
                {
                    "attributes" : {
                        "POSITION" : 4,
                        "TEXCOORD_0" : 5,
                        "NORMAL" : 6
                    },
                    "indices" : 7,
                    "material" : 1
                },
                {
                    "attributes" : {
                        "POSITION" : 8,
                        "TEXCOORD_0" : 9,
                        "NORMAL" : 10
                    },
                    "indices" : 11,
                    "material" : 2
                }
            ]
        },
        {
            "name" : "Cube.002",
            "primitives" : [
                {
                    "attributes" : {
                        "POSITION" : 12,
                        "TEXCOORD_0" : 13,
                        "NORMAL" : 14
                    },
                    "indices" : 3,
                    "material" : 3
                },
                {
                    "attributes" : {
                        "POSITION" : 15,
                        "TEXCOORD_0" : 16,
                        "NORMAL" : 17
                    },
                    "indices" : 7,
                    "material" : 4
                },
                {
                    "attributes" : {
                        "POSITION" : 18,
                        "TEXCOORD_0" : 19,
                        "NORMAL" : 20
                    },
                    "indices" : 11,
                    "material" : 5
                }
            ]
        },
        {
            "name" : "Cube.017",
            "primitives" : [
                {
                    "attributes" : {
                        "POSITION" : 21,
                        "TEXCOORD_0" : 22,
                        "NORMAL" : 23
                    },
                    "indices" : 3,
                    "material" : 6
                },
                {
                    "attributes" : {
                        "POSITION" : 24,
                        "TEXCOORD_0" : 25,
                        "NORMAL" : 26
                    },
                    "indices" : 7,
                    "material" : 7
                },
                {
                    "attributes" : {
                        "POSITION" : 27,
                        "TEXCOORD_0" : 28,
                        "NORMAL" : 29
                    },
                    "indices" : 11,
                    "material" : 8
                }
            ]
        },
        {
            "name" : "Curve",
            "primitives" : [
                {
                    "attributes" : {
                        "POSITION" : 30,
                        "TEXCOORD_0" : 31,
                        "NORMAL" : 32
                    },
                    "indices" : 33,
                    "material" : 9
                }
            ]
        }
    ],
    "accessors" : [
        {
            "bufferView" : 0,
            "componentType" : 5126,
            "count" : 2054,
            "max" : [
                5.233585834503174,
                5.985079765319824,
                2.5305702686309814
            ],
            "min" : [
                -4.678067684173584,
                -6.024529933929443,
                0.4655667841434479
            ],
            "type" : "VEC3"
        },
        {
            "bufferView" : 1,
            "componentType" : 5126,
            "count" : 2054,
            "type" : "VEC2"
        },
        {
            "bufferView" : 2,
            "componentType" : 5126,
            "count" : 2054,
            "type" : "VEC3"
        },
        {
            "bufferView" : 3,
            "componentType" : 5123,
            "count" : 4608,
            "type" : "SCALAR"
        },
        {
            "bufferView" : 4,
            "componentType" : 5126,
            "count" : 396,
            "max" : [
                5.51089334487915,
                6.180646896362305,
                3.0335774421691895
            ],
            "min" : [
                -4.922486782073975,
                -6.180644989013672,
                0.05674242973327637
            ],
            "type" : "VEC3"
        },
        {
            "bufferView" : 5,
            "componentType" : 5126,
            "count" : 396,
            "type" : "VEC2"
        },
        {
            "bufferView" : 6,
            "componentType" : 5126,
            "count" : 396,
            "type" : "VEC3"
        },
        {
            "bufferView" : 7,
            "componentType" : 5123,
            "count" : 1584,
            "type" : "SCALAR"
        },
        {
            "bufferView" : 8,
            "componentType" : 5126,
            "count" : 12,
            "max" : [
                5.51089334487915,
                2.1610395908355713,
                2.931839942932129
            ],
            "min" : [
                -3.2908613681793213,
                -2.1610400676727295,
                2.931839942932129
            ],
            "type" : "VEC3"
        },
        {
            "bufferView" : 9,
            "componentType" : 5126,
            "count" : 12,
            "type" : "VEC2"
        },
        {
            "bufferView" : 10,
            "componentType" : 5126,
            "count" : 12,
            "type" : "VEC3"
        },
        {
            "bufferView" : 11,
            "componentType" : 5123,
            "count" : 36,
            "type" : "SCALAR"
        },
        {
            "bufferView" : 12,
            "componentType" : 5126,
            "count" : 2054,
            "max" : [
                5.233585834503174,
                5.985079765319824,
                2.5305702686309814
            ],
            "min" : [
                -4.678067684173584,
                -6.024529933929443,
                0.4655667841434479
            ],
            "type" : "VEC3"
        },
        {
            "bufferView" : 13,
            "componentType" : 5126,
            "count" : 2054,
            "type" : "VEC2"
        },
        {
            "bufferView" : 14,
            "componentType" : 5126,
            "count" : 2054,
            "type" : "VEC3"
        },
        {
            "bufferView" : 15,
            "componentType" : 5126,
            "count" : 396,
            "max" : [
                5.51089334487915,
                6.180646896362305,
                3.0335774421691895
            ],
            "min" : [
                -4.922486782073975,
                -6.180644989013672,
                0.05674242973327637
            ],
            "type" : "VEC3"
        },
        {
            "bufferView" : 16,
            "componentType" : 5126,
            "count" : 396,
            "type" : "VEC2"
        },
        {
            "bufferView" : 17,
            "componentType" : 5126,
            "count" : 396,
            "type" : "VEC3"
        },
        {
            "bufferView" : 18,
            "componentType" : 5126,
            "count" : 12,
            "max" : [
                5.51089334487915,
                2.1610395908355713,
                2.931839942932129
            ],
            "min" : [
                -3.2908613681793213,
                -2.1610400676727295,
                2.931839942932129
            ],
            "type" : "VEC3"
        },
        {
            "bufferView" : 19,
            "componentType" : 5126,
            "count" : 12,
            "type" : "VEC2"
        },
        {
            "bufferView" : 20,
            "componentType" : 5126,
            "count" : 12,
            "type" : "VEC3"
        },
        {
            "bufferView" : 21,
            "componentType" : 5126,
            "count" : 2054,
            "max" : [
                5.233585834503174,
                5.985079765319824,
                2.5305702686309814
            ],
            "min" : [
                -4.678067684173584,
                -6.024529933929443,
                0.4655667841434479
            ],
            "type" : "VEC3"
        },
        {
            "bufferView" : 22,
            "componentType" : 5126,
            "count" : 2054,
            "type" : "VEC2"
        },
        {
            "bufferView" : 23,
            "componentType" : 5126,
            "count" : 2054,
            "type" : "VEC3"
        },
        {
            "bufferView" : 24,
            "componentType" : 5126,
            "count" : 396,
            "max" : [
                5.51089334487915,
                6.180646896362305,
                3.0335774421691895
            ],
            "min" : [
                -4.922486782073975,
                -6.180644989013672,
                0.05674242973327637
            ],
            "type" : "VEC3"
        },
        {
            "bufferView" : 25,
            "componentType" : 5126,
            "count" : 396,
            "type" : "VEC2"
        },
        {
            "bufferView" : 26,
            "componentType" : 5126,
            "count" : 396,
            "type" : "VEC3"
        },
        {
            "bufferView" : 27,
            "componentType" : 5126,
            "count" : 12,
            "max" : [
                5.51089334487915,
                2.1610395908355713,
                2.931839942932129
            ],
            "min" : [
                -3.2908613681793213,
                -2.1610400676727295,
                2.931839942932129
            ],
            "type" : "VEC3"
        },
        {
            "bufferView" : 28,
            "componentType" : 5126,
            "count" : 12,
            "type" : "VEC2"
        },
        {
            "bufferView" : 29,
            "componentType" : 5126,
            "count" : 12,
            "type" : "VEC3"
        },
        {
            "bufferView" : 30,
            "componentType" : 5126,
            "count" : 2552,
            "max" : [
                0.006032133009284735,
                0.00010000003385357559,
                0.006009532138705254
            ],
            "min" : [
                -0.004857237450778484,
                -0.00010000003385357559,
                -0.004863467533141375
            ],
            "type" : "VEC3"
        },
        {
            "bufferView" : 31,
            "componentType" : 5126,
            "count" : 2552,
            "type" : "VEC2"
        },
        {
            "bufferView" : 32,
            "componentType" : 5126,
            "count" : 2552,
            "type" : "VEC3"
        },
        {
            "bufferView" : 33,
            "componentType" : 5123,
            "count" : 13800,
            "type" : "SCALAR"
        }
    ],
    "bufferViews" : [
        {
            "buffer" : 0,
            "byteLength" : 24648,
            "byteOffset" : 0,
            "target" : 34962
        },
        {
            "buffer" : 0,
            "byteLength" : 16432,
            "byteOffset" : 24648,
            "target" : 34962
        },
        {
            "buffer" : 0,
            "byteLength" : 24648,
            "byteOffset" : 41080,
            "target" : 34962
        },
        {
            "buffer" : 0,
            "byteLength" : 9216,
            "byteOffset" : 65728,
            "target" : 34963
        },
        {
            "buffer" : 0,
            "byteLength" : 4752,
            "byteOffset" : 74944,
            "target" : 34962
        },
        {
            "buffer" : 0,
            "byteLength" : 3168,
            "byteOffset" : 79696,
            "target" : 34962
        },
        {
            "buffer" : 0,
            "byteLength" : 4752,
            "byteOffset" : 82864,
            "target" : 34962
        },
        {
            "buffer" : 0,
            "byteLength" : 3168,
            "byteOffset" : 87616,
            "target" : 34963
        },
        {
            "buffer" : 0,
            "byteLength" : 144,
            "byteOffset" : 90784,
            "target" : 34962
        },
        {
            "buffer" : 0,
            "byteLength" : 96,
            "byteOffset" : 90928,
            "target" : 34962
        },
        {
            "buffer" : 0,
            "byteLength" : 144,
            "byteOffset" : 91024,
            "target" : 34962
        },
        {
            "buffer" : 0,
            "byteLength" : 72,
            "byteOffset" : 91168,
            "target" : 34963
        },
        {
            "buffer" : 0,
            "byteLength" : 24648,
            "byteOffset" : 91240,
            "target" : 34962
        },
        {
            "buffer" : 0,
            "byteLength" : 16432,
            "byteOffset" : 115888,
            "target" : 34962
        },
        {
            "buffer" : 0,
            "byteLength" : 24648,
            "byteOffset" : 132320,
            "target" : 34962
        },
        {
            "buffer" : 0,
            "byteLength" : 4752,
            "byteOffset" : 156968,
            "target" : 34962
        },
        {
            "buffer" : 0,
            "byteLength" : 3168,
            "byteOffset" : 161720,
            "target" : 34962
        },
        {
            "buffer" : 0,
            "byteLength" : 4752,
            "byteOffset" : 164888,
            "target" : 34962
        },
        {
            "buffer" : 0,
            "byteLength" : 144,
            "byteOffset" : 169640,
            "target" : 34962
        },
        {
            "buffer" : 0,
            "byteLength" : 96,
            "byteOffset" : 169784,
            "target" : 34962
        },
        {
            "buffer" : 0,
            "byteLength" : 144,
            "byteOffset" : 169880,
            "target" : 34962
        },
        {
            "buffer" : 0,
            "byteLength" : 24648,
            "byteOffset" : 170024,
            "target" : 34962
        },
        {
            "buffer" : 0,
            "byteLength" : 16432,
            "byteOffset" : 194672,
            "target" : 34962
        },
        {
            "buffer" : 0,
            "byteLength" : 24648,
            "byteOffset" : 211104,
            "target" : 34962
        },
        {
            "buffer" : 0,
            "byteLength" : 4752,
            "byteOffset" : 235752,
            "target" : 34962
        },
        {
            "buffer" : 0,
            "byteLength" : 3168,
            "byteOffset" : 240504,
            "target" : 34962
        },
        {
            "buffer" : 0,
            "byteLength" : 4752,
            "byteOffset" : 243672,
            "target" : 34962
        },
        {
            "buffer" : 0,
            "byteLength" : 144,
            "byteOffset" : 248424,
            "target" : 34962
        },
        {
            "buffer" : 0,
            "byteLength" : 96,
            "byteOffset" : 248568,
            "target" : 34962
        },
        {
            "buffer" : 0,
            "byteLength" : 144,
            "byteOffset" : 248664,
            "target" : 34962
        },
        {
            "buffer" : 0,
            "byteLength" : 30624,
            "byteOffset" : 248808,
            "target" : 34962
        },
        {
            "buffer" : 0,
            "byteLength" : 20416,
            "byteOffset" : 279432,
            "target" : 34962
        },
        {
            "buffer" : 0,
            "byteLength" : 30624,
            "byteOffset" : 299848,
            "target" : 34962
        },
        {
            "buffer" : 0,
            "byteLength" : 27600,
            "byteOffset" : 330472,
            "target" : 34963
        }
    ],
    "buffers" : [
        {
            "byteLength" : 358072,
            "uri" : "data:application/octet-stream;base64,"
        }
    ]
}
