{
    "asset" : {
        "generator" : "Khronos glTF Blender I/O v3.4.49",
        "version" : "2.0"
    },
    "scene" : 0,
    "scenes" : [
        {
            "name" : "Scene",
            "nodes" : [
                0,
                1
            ]
        }
    ],
    "nodes" : [
        {
            "mesh" : 0,
            "name" : "Curve.001",
            "scale" : [
                184.7725067138672,
                184.7725067138672,
                184.7725067138672
            ],
            "translation" : [
                0,
                0.8239668011665344,
                0
            ]
        },
        {
            "mesh" : 1,
            "name" : "Curve",
            "scale" : [
                184.7725067138672,
                184.7725067138672,
                184.7725067138672
            ]
        }
    ],
    "animations" : [
        {
            "channels" : [
                {
                    "sampler" : 0,
                    "target" : {
                        "node" : 0,
                        "path" : "translation"
                    }
                },
                {
                    "sampler" : 1,
                    "target" : {
                        "node" : 0,
                        "path" : "rotation"
                    }
                },
                {
                    "sampler" : 2,
                    "target" : {
                        "node" : 0,
                        "path" : "scale"
                    }
                }
            ],
            "name" : "Curve.001Action",
            "samplers" : [
                {
                    "input" : 8,
                    "interpolation" : "LINEAR",
                    "output" : 9
                },
                {
                    "input" : 8,
                    "interpolation" : "LINEAR",
                    "output" : 10
                },
                {
                    "input" : 8,
                    "interpolation" : "LINEAR",
                    "output" : 11
                }
            ]
        }
    ],
    "materials" : [
        {
            "doubleSided" : true,
            "name" : "Material.003",
            "pbrMetallicRoughness" : {
                "baseColorFactor" : [
                    0.8387988805770874,
                    0.26635515689849854,
                    0.47932007908821106,
                    1
                ],
                "metallicFactor" : 0,
                "roughnessFactor" : 0.4000000059604645
            }
        },
        {
            "doubleSided" : true,
            "name" : "SVGMat",
            "pbrMetallicRoughness" : {
                "baseColorFactor" : [
                    0.0021246301475912333,
                    0.014443805441260338,
                    0.07618539035320282,
                    1
                ],
                "metallicFactor" : 0,
                "roughnessFactor" : 0
            }
        }
    ],
    "meshes" : [
        {
            "name" : "Curve.001",
            "primitives" : [
                {
                    "attributes" : {
                        "POSITION" : 0,
                        "TEXCOORD_0" : 1,
                        "NORMAL" : 2
                    },
                    "indices" : 3,
                    "material" : 0
                }
            ]
        },
        {
            "name" : "Curve",
            "primitives" : [
                {
                    "attributes" : {
                        "POSITION" : 4,
                        "TEXCOORD_0" : 5,
                        "NORMAL" : 6
                    },
                    "indices" : 7,
                    "material" : 1
                }
            ]
        }
    ],
    "accessors" : [
        {
            "bufferView" : 0,
            "componentType" : 5126,
            "count" : 2651,
            "max" : [
                0.023343386128544807,
                0.00010000003385357559,
                0.011285836808383465
            ],
            "min" : [
                -0.024635372683405876,
                -0.00010000003385357559,
                -0.010271827690303326
            ],
            "type" : "VEC3"
        },
        {
            "bufferView" : 1,
            "componentType" : 5126,
            "count" : 2651,
            "type" : "VEC2"
        },
        {
            "bufferView" : 2,
            "componentType" : 5126,
            "count" : 2651,
            "type" : "VEC3"
        },
        {
            "bufferView" : 3,
            "componentType" : 5123,
            "count" : 14400,
            "type" : "SCALAR"
        },
        {
            "bufferView" : 4,
            "componentType" : 5126,
            "count" : 1509,
            "max" : [
                0.023343386128544807,
                0.0024280347861349583,
                0.011285836808383465
            ],
            "min" : [
                -0.024635372683405876,
                0,
                -0.010271827690303326
            ],
            "type" : "VEC3"
        },
        {
            "bufferView" : 5,
            "componentType" : 5126,
            "count" : 1509,
            "type" : "VEC2"
        },
        {
            "bufferView" : 6,
            "componentType" : 5126,
            "count" : 1509,
            "type" : "VEC3"
        },
        {
            "bufferView" : 7,
            "componentType" : 5123,
            "count" : 2148,
            "type" : "SCALAR"
        },
        {
            "bufferView" : 8,
            "componentType" : 5126,
            "count" : 250,
            "max" : [
                10.416666666666666
            ],
            "min" : [
                0.041666666666666664
            ],
            "type" : "SCALAR"
        },
        {
            "bufferView" : 9,
            "componentType" : 5126,
            "count" : 250,
            "type" : "VEC3"
        },
        {
            "bufferView" : 10,
            "componentType" : 5126,
            "count" : 250,
            "type" : "VEC4"
        },
        {
            "bufferView" : 11,
            "componentType" : 5126,
            "count" : 250,
            "type" : "VEC3"
        }
    ],
    "bufferViews" : [
        {
            "buffer" : 0,
            "byteLength" : 31812,
            "byteOffset" : 0,
            "target" : 34962
        },
        {
            "buffer" : 0,
            "byteLength" : 21208,
            "byteOffset" : 31812,
            "target" : 34962
        },
        {
            "buffer" : 0,
            "byteLength" : 31812,
            "byteOffset" : 53020,
            "target" : 34962
        },
        {
            "buffer" : 0,
            "byteLength" : 28800,
            "byteOffset" : 84832,
            "target" : 34963
        },
        {
            "buffer" : 0,
            "byteLength" : 18108,
            "byteOffset" : 113632,
            "target" : 34962
        },
        {
            "buffer" : 0,
            "byteLength" : 12072,
            "byteOffset" : 131740,
            "target" : 34962
        },
        {
            "buffer" : 0,
            "byteLength" : 18108,
            "byteOffset" : 143812,
            "target" : 34962
        },
        {
            "buffer" : 0,
            "byteLength" : 4296,
            "byteOffset" : 161920,
            "target" : 34963
        },
        {
            "buffer" : 0,
            "byteLength" : 1000,
            "byteOffset" : 166216
        },
        {
            "buffer" : 0,
            "byteLength" : 3000,
            "byteOffset" : 167216
        },
        {
            "buffer" : 0,
            "byteLength" : 4000,
            "byteOffset" : 170216
        },
        {
            "buffer" : 0,
            "byteLength" : 3000,
            "byteOffset" : 174216
        }
    ],
    "buffers" : [
        {
            "byteLength" : 177216,
            "uri" : "data:application/octet-stream;base64,"
        }
    ]
}
