{
    "asset" : {
        "generator" : "Khronos glTF Blender I/O v3.4.49",
        "version" : "2.0"
    },
    "scene" : 0,
    "scenes" : [
        {
            "name" : "Scene",
            "nodes" : [
                0,
                1,
                2,
                3,
                4,
                5,
                6,
                7,
                8,
                9
            ]
        }
    ],
    "nodes" : [
        {
            "mesh" : 0,
            "name" : "Curve.009",
            "scale" : [
                25.938886642456055,
                25.938886642456055,
                25.938886642456055
            ],
            "translation" : [
                0,
                0.6884114742279053,
                0
            ]
        },
        {
            "mesh" : 1,
            "name" : "Curve.008",
            "rotation" : [
                -0.027080858126282692,
                0.012313994579017162,
                -0.009288042783737183,
                0.9995142221450806
            ],
            "scale" : [
                25.938884735107422,
                25.938886642456055,
                25.938888549804688
            ],
            "translation" : [
                0,
                0.7294301390647888,
                0
            ]
        },
        {
            "mesh" : 2,
            "name" : "Curve.007",
            "scale" : [
                25.938886642456055,
                25.938886642456055,
                25.938886642456055
            ],
            "translation" : [
                0,
                0.8955388069152832,
                0
            ]
        },
        {
            "mesh" : 3,
            "name" : "Curve.006",
            "rotation" : [
                -0.013061901554465294,
                -0.006800937000662088,
                0.01688101328909397,
                0.9997490644454956
            ],
            "scale" : [
                25.938886642456055,
                25.938886642456055,
                25.938886642456055
            ],
            "translation" : [
                0,
                0.7294301390647888,
                0
            ]
        },
        {
            "mesh" : 4,
            "name" : "Curve.005",
            "rotation" : [
                0.01389665249735117,
                0.007235569413751364,
                -0.017959823831915855,
                0.9997159242630005
            ],
            "scale" : [
                25.938886642456055,
                25.938886642456055,
                25.938886642456055
            ],
            "translation" : [
                0,
                0.7703876495361328,
                0
            ]
        },
        {
            "mesh" : 5,
            "name" : "Curve",
            "scale" : [
                25.938886642456055,
                25.938886642456055,
                25.938886642456055
            ]
        },
        {
            "mesh" : 6,
            "name" : "Curve.001",
            "scale" : [
                25.938886642456055,
                25.938886642456055,
                25.938886642456055
            ]
        },
        {
            "mesh" : 7,
            "name" : "Curve.002",
            "scale" : [
                25.938886642456055,
                25.938886642456055,
                25.938886642456055
            ]
        },
        {
            "mesh" : 8,
            "name" : "Curve.003",
            "scale" : [
                25.938886642456055,
                25.938886642456055,
                25.938886642456055
            ]
        },
        {
            "mesh" : 9,
            "name" : "Curve.004",
            "scale" : [
                25.938886642456055,
                25.938886642456055,
                25.938886642456055
            ]
        }
    ],
    "materials" : [
        {
            "doubleSided" : true,
            "name" : "SVGMat.001",
            "pbrMetallicRoughness" : {
                "baseColorFactor" : [
                    0.36625155806541443,
                    0.8227853178977966,
                    0.8227859139442444,
                    1
                ],
                "metallicFactor" : 0,
                "roughnessFactor" : 0.4000000059604645
            }
        },
        {
            "doubleSided" : true,
            "name" : "SVGMat",
            "pbrMetallicRoughness" : {
                "baseColorFactor" : [
                    0.0021246301475912333,
                    0.014443805441260338,
                    0.07618539035320282,
                    1
                ],
                "metallicFactor" : 0,
                "roughnessFactor" : 0
            }
        }
    ],
    "meshes" : [
        {
            "name" : "Curve.009",
            "primitives" : [
                {
                    "attributes" : {
                        "POSITION" : 0,
                        "TEXCOORD_0" : 1,
                        "NORMAL" : 2
                    },
                    "indices" : 3,
                    "material" : 0
                }
            ]
        },
        {
            "name" : "Curve.008",
            "primitives" : [
                {
                    "attributes" : {
                        "POSITION" : 4,
                        "TEXCOORD_0" : 5,
                        "NORMAL" : 6
                    },
                    "indices" : 3,
                    "material" : 0
                }
            ]
        },
        {
            "name" : "Curve.007",
            "primitives" : [
                {
                    "attributes" : {
                        "POSITION" : 7,
                        "TEXCOORD_0" : 8,
                        "NORMAL" : 9
                    },
                    "indices" : 3,
                    "material" : 0
                }
            ]
        },
        {
            "name" : "Curve.006",
            "primitives" : [
                {
                    "attributes" : {
                        "POSITION" : 10,
                        "TEXCOORD_0" : 11,
                        "NORMAL" : 12
                    },
                    "indices" : 13,
                    "material" : 0
                }
            ]
        },
        {
            "name" : "Curve.005",
            "primitives" : [
                {
                    "attributes" : {
                        "POSITION" : 14,
                        "TEXCOORD_0" : 15,
                        "NORMAL" : 16
                    },
                    "indices" : 17,
                    "material" : 0
                }
            ]
        },
        {
            "name" : "Curve",
            "primitives" : [
                {
                    "attributes" : {
                        "POSITION" : 18,
                        "TEXCOORD_0" : 19,
                        "NORMAL" : 20
                    },
                    "indices" : 21,
                    "material" : 1
                }
            ]
        },
        {
            "name" : "Curve.001",
            "primitives" : [
                {
                    "attributes" : {
                        "POSITION" : 22,
                        "TEXCOORD_0" : 23,
                        "NORMAL" : 24
                    },
                    "indices" : 25,
                    "material" : 1
                }
            ]
        },
        {
            "name" : "Curve.002",
            "primitives" : [
                {
                    "attributes" : {
                        "POSITION" : 26,
                        "TEXCOORD_0" : 27,
                        "NORMAL" : 28
                    },
                    "indices" : 29,
                    "material" : 1
                }
            ]
        },
        {
            "name" : "Curve.003",
            "primitives" : [
                {
                    "attributes" : {
                        "POSITION" : 30,
                        "TEXCOORD_0" : 31,
                        "NORMAL" : 32
                    },
                    "indices" : 33,
                    "material" : 1
                }
            ]
        },
        {
            "name" : "Curve.004",
            "primitives" : [
                {
                    "attributes" : {
                        "POSITION" : 34,
                        "TEXCOORD_0" : 35,
                        "NORMAL" : 36
                    },
                    "indices" : 37,
                    "material" : 1
                }
            ]
        }
    ],
    "accessors" : [
        {
            "bufferView" : 0,
            "componentType" : 5126,
            "count" : 1078,
            "max" : [
                0.030675971880555153,
                0.0003000000724568963,
                0.030668387189507484
            ],
            "min" : [
                -0.030676426365971565,
                -0.0003000000724568963,
                -0.030671188607811928
            ],
            "type" : "VEC3"
        },
        {
            "bufferView" : 1,
            "componentType" : 5126,
            "count" : 1078,
            "type" : "VEC2"
        },
        {
            "bufferView" : 2,
            "componentType" : 5126,
            "count" : 1078,
            "type" : "VEC3"
        },
        {
            "bufferView" : 3,
            "componentType" : 5123,
            "count" : 5760,
            "type" : "SCALAR"
        },
        {
            "bufferView" : 4,
            "componentType" : 5126,
            "count" : 1078,
            "max" : [
                0.014653990976512432,
                0.00030000010156072676,
                0.014649669639766216
            ],
            "min" : [
                -0.014654229395091534,
                -0.00030000010156072676,
                -0.014652500860393047
            ],
            "type" : "VEC3"
        },
        {
            "bufferView" : 5,
            "componentType" : 5126,
            "count" : 1078,
            "type" : "VEC2"
        },
        {
            "bufferView" : 6,
            "componentType" : 5126,
            "count" : 1078,
            "type" : "VEC3"
        },
        {
            "bufferView" : 7,
            "componentType" : 5126,
            "count" : 1078,
            "max" : [
                0.0536297969520092,
                0.00030000010156072676,
                0.053618546575307846
            ],
            "min" : [
                -0.053629811853170395,
                -0.00030000010156072676,
                -0.05361853167414665
            ],
            "type" : "VEC3"
        },
        {
            "bufferView" : 8,
            "componentType" : 5126,
            "count" : 1078,
            "type" : "VEC2"
        },
        {
            "bufferView" : 9,
            "componentType" : 5126,
            "count" : 1078,
            "type" : "VEC3"
        },
        {
            "bufferView" : 10,
            "componentType" : 5126,
            "count" : 2134,
            "max" : [
                0.08431593328714371,
                0.00030000010156072676,
                0.08429879695177078
            ],
            "min" : [
                -0.08431414514780045,
                -0.00030000010156072676,
                -0.08429860323667526
            ],
            "type" : "VEC3"
        },
        {
            "bufferView" : 11,
            "componentType" : 5126,
            "count" : 2134,
            "type" : "VEC2"
        },
        {
            "bufferView" : 12,
            "componentType" : 5126,
            "count" : 2134,
            "type" : "VEC3"
        },
        {
            "bufferView" : 13,
            "componentType" : 5123,
            "count" : 11520,
            "type" : "SCALAR"
        },
        {
            "bufferView" : 14,
            "componentType" : 5126,
            "count" : 4246,
            "max" : [
                0.13430754840373993,
                0.00030000010156072676,
                0.13428062200546265
            ],
            "min" : [
                -0.13430744409561157,
                -0.00030000010156072676,
                -0.13427779078483582
            ],
            "type" : "VEC3"
        },
        {
            "bufferView" : 15,
            "componentType" : 5126,
            "count" : 4246,
            "type" : "VEC2"
        },
        {
            "bufferView" : 16,
            "componentType" : 5126,
            "count" : 4246,
            "type" : "VEC3"
        },
        {
            "bufferView" : 17,
            "componentType" : 5123,
            "count" : 23040,
            "type" : "SCALAR"
        },
        {
            "bufferView" : 18,
            "componentType" : 5126,
            "count" : 734,
            "max" : [
                0.030375972390174866,
                0.016065649688243866,
                0.030368387699127197
            ],
            "min" : [
                -0.030376426875591278,
                0,
                -0.03037118911743164
            ],
            "type" : "VEC3"
        },
        {
            "bufferView" : 19,
            "componentType" : 5126,
            "count" : 734,
            "type" : "VEC2"
        },
        {
            "bufferView" : 20,
            "componentType" : 5126,
            "count" : 734,
            "type" : "VEC3"
        },
        {
            "bufferView" : 21,
            "componentType" : 5123,
            "count" : 1152,
            "type" : "SCALAR"
        },
        {
            "bufferView" : 22,
            "componentType" : 5126,
            "count" : 672,
            "max" : [
                0.01435399055480957,
                0.018139919266104698,
                0.014349669218063354
            ],
            "min" : [
                -0.014354228973388672,
                -0.00208449549973011,
                -0.014352500438690186
            ],
            "type" : "VEC3"
        },
        {
            "bufferView" : 23,
            "componentType" : 5126,
            "count" : 672,
            "type" : "VEC2"
        },
        {
            "bufferView" : 24,
            "componentType" : 5126,
            "count" : 672,
            "type" : "VEC3"
        },
        {
            "bufferView" : 25,
            "componentType" : 5123,
            "count" : 864,
            "type" : "SCALAR"
        },
        {
            "bufferView" : 26,
            "componentType" : 5126,
            "count" : 960,
            "max" : [
                0.053329795598983765,
                0.019491929560899734,
                0.05331854522228241
            ],
            "min" : [
                -0.05332981050014496,
                -0.0034262798726558685,
                -0.053318530321121216
            ],
            "type" : "VEC3"
        },
        {
            "bufferView" : 27,
            "componentType" : 5126,
            "count" : 960,
            "type" : "VEC2"
        },
        {
            "bufferView" : 28,
            "componentType" : 5126,
            "count" : 960,
            "type" : "VEC3"
        },
        {
            "bufferView" : 29,
            "componentType" : 5123,
            "count" : 1152,
            "type" : "SCALAR"
        },
        {
            "bufferView" : 30,
            "componentType" : 5126,
            "count" : 1453,
            "max" : [
                0.08401593565940857,
                0.016065649688243866,
                0.08399879932403564
            ],
            "min" : [
                -0.08401414752006531,
                0,
                -0.08399860560894012
            ],
            "type" : "VEC3"
        },
        {
            "bufferView" : 31,
            "componentType" : 5126,
            "count" : 1453,
            "type" : "VEC2"
        },
        {
            "bufferView" : 32,
            "componentType" : 5126,
            "count" : 1453,
            "type" : "VEC3"
        },
        {
            "bufferView" : 33,
            "componentType" : 5123,
            "count" : 2304,
            "type" : "SCALAR"
        },
        {
            "bufferView" : 34,
            "componentType" : 5126,
            "count" : 3840,
            "max" : [
                0.1340075433254242,
                0.019827324897050858,
                0.1339806169271469
            ],
            "min" : [
                -0.13400743901729584,
                -0.003761754371225834,
                -0.13397778570652008
            ],
            "type" : "VEC3"
        },
        {
            "bufferView" : 35,
            "componentType" : 5126,
            "count" : 3840,
            "type" : "VEC2"
        },
        {
            "bufferView" : 36,
            "componentType" : 5126,
            "count" : 3840,
            "type" : "VEC3"
        },
        {
            "bufferView" : 37,
            "componentType" : 5123,
            "count" : 4608,
            "type" : "SCALAR"
        }
    ],
    "bufferViews" : [
        {
            "buffer" : 0,
            "byteLength" : 12936,
            "byteOffset" : 0,
            "target" : 34962
        },
        {
            "buffer" : 0,
            "byteLength" : 8624,
            "byteOffset" : 12936,
            "target" : 34962
        },
        {
            "buffer" : 0,
            "byteLength" : 12936,
            "byteOffset" : 21560,
            "target" : 34962
        },
        {
            "buffer" : 0,
            "byteLength" : 11520,
            "byteOffset" : 34496,
            "target" : 34963
        },
        {
            "buffer" : 0,
            "byteLength" : 12936,
            "byteOffset" : 46016,
            "target" : 34962
        },
        {
            "buffer" : 0,
            "byteLength" : 8624,
            "byteOffset" : 58952,
            "target" : 34962
        },
        {
            "buffer" : 0,
            "byteLength" : 12936,
            "byteOffset" : 67576,
            "target" : 34962
        },
        {
            "buffer" : 0,
            "byteLength" : 12936,
            "byteOffset" : 80512,
            "target" : 34962
        },
        {
            "buffer" : 0,
            "byteLength" : 8624,
            "byteOffset" : 93448,
            "target" : 34962
        },
        {
            "buffer" : 0,
            "byteLength" : 12936,
            "byteOffset" : 102072,
            "target" : 34962
        },
        {
            "buffer" : 0,
            "byteLength" : 25608,
            "byteOffset" : 115008,
            "target" : 34962
        },
        {
            "buffer" : 0,
            "byteLength" : 17072,
            "byteOffset" : 140616,
            "target" : 34962
        },
        {
            "buffer" : 0,
            "byteLength" : 25608,
            "byteOffset" : 157688,
            "target" : 34962
        },
        {
            "buffer" : 0,
            "byteLength" : 23040,
            "byteOffset" : 183296,
            "target" : 34963
        },
        {
            "buffer" : 0,
            "byteLength" : 50952,
            "byteOffset" : 206336,
            "target" : 34962
        },
        {
            "buffer" : 0,
            "byteLength" : 33968,
            "byteOffset" : 257288,
            "target" : 34962
        },
        {
            "buffer" : 0,
            "byteLength" : 50952,
            "byteOffset" : 291256,
            "target" : 34962
        },
        {
            "buffer" : 0,
            "byteLength" : 46080,
            "byteOffset" : 342208,
            "target" : 34963
        },
        {
            "buffer" : 0,
            "byteLength" : 8808,
            "byteOffset" : 388288,
            "target" : 34962
        },
        {
            "buffer" : 0,
            "byteLength" : 5872,
            "byteOffset" : 397096,
            "target" : 34962
        },
        {
            "buffer" : 0,
            "byteLength" : 8808,
            "byteOffset" : 402968,
            "target" : 34962
        },
        {
            "buffer" : 0,
            "byteLength" : 2304,
            "byteOffset" : 411776,
            "target" : 34963
        },
        {
            "buffer" : 0,
            "byteLength" : 8064,
            "byteOffset" : 414080,
            "target" : 34962
        },
        {
            "buffer" : 0,
            "byteLength" : 5376,
            "byteOffset" : 422144,
            "target" : 34962
        },
        {
            "buffer" : 0,
            "byteLength" : 8064,
            "byteOffset" : 427520,
            "target" : 34962
        },
        {
            "buffer" : 0,
            "byteLength" : 1728,
            "byteOffset" : 435584,
            "target" : 34963
        },
        {
            "buffer" : 0,
            "byteLength" : 11520,
            "byteOffset" : 437312,
            "target" : 34962
        },
        {
            "buffer" : 0,
            "byteLength" : 7680,
            "byteOffset" : 448832,
            "target" : 34962
        },
        {
            "buffer" : 0,
            "byteLength" : 11520,
            "byteOffset" : 456512,
            "target" : 34962
        },
        {
            "buffer" : 0,
            "byteLength" : 2304,
            "byteOffset" : 468032,
            "target" : 34963
        },
        {
            "buffer" : 0,
            "byteLength" : 17436,
            "byteOffset" : 470336,
            "target" : 34962
        },
        {
            "buffer" : 0,
            "byteLength" : 11624,
            "byteOffset" : 487772,
            "target" : 34962
        },
        {
            "buffer" : 0,
            "byteLength" : 17436,
            "byteOffset" : 499396,
            "target" : 34962
        },
        {
            "buffer" : 0,
            "byteLength" : 4608,
            "byteOffset" : 516832,
            "target" : 34963
        },
        {
            "buffer" : 0,
            "byteLength" : 46080,
            "byteOffset" : 521440,
            "target" : 34962
        },
        {
            "buffer" : 0,
            "byteLength" : 30720,
            "byteOffset" : 567520,
            "target" : 34962
        },
        {
            "buffer" : 0,
            "byteLength" : 46080,
            "byteOffset" : 598240,
            "target" : 34962
        },
        {
            "buffer" : 0,
            "byteLength" : 9216,
            "byteOffset" : 644320,
            "target" : 34963
        }
    ],
    "buffers" : [
        {
            "byteLength" : 653536,
            "uri" : "data:application/octet-stream;base64,"
        }
    ]
}
