{
    "asset" : {
        "generator" : "Khronos glTF Blender I/O v3.4.49",
        "version" : "2.0"
    },
    "scene" : 0,
    "scenes" : [
        {
            "name" : "Scene",
            "nodes" : [
                0,
                1,
                2,
                3,
                4,
                5,
                6,
                7
            ]
        }
    ],
    "nodes" : [
        {
            "mesh" : 0,
            "name" : "Curve.004",
            "scale" : [
                25.098125457763672,
                25.098125457763672,
                25.098125457763672
            ],
            "translation" : [
                -3.4925923347473145,
                0,
                3.492417812347412
            ]
        },
        {
            "mesh" : 1,
            "name" : "Curve.005",
            "scale" : [
                25.098125457763672,
                25.098125457763672,
                25.098125457763672
            ],
            "translation" : [
                -3.4925923347473145,
                0,
                3.492417812347412
            ]
        },
        {
            "mesh" : 2,
            "name" : "Curve.006",
            "scale" : [
                25.098125457763672,
                25.098125457763672,
                25.098125457763672
            ],
            "translation" : [
                -3.4925923347473145,
                0,
                3.492417812347412
            ]
        },
        {
            "mesh" : 3,
            "name" : "Curve.007",
            "scale" : [
                25.098125457763672,
                25.098125457763672,
                25.098125457763672
            ],
            "translation" : [
                -3.4925923347473145,
                0,
                3.492417812347412
            ]
        },
        {
            "mesh" : 4,
            "name" : "Curve",
            "scale" : [
                25.098125457763672,
                25.098125457763672,
                25.098125457763672
            ],
            "translation" : [
                -3.4925923347473145,
                0.9908055663108826,
                3.492417812347412
            ]
        },
        {
            "mesh" : 5,
            "name" : "Curve.001",
            "scale" : [
                25.098125457763672,
                25.098125457763672,
                25.098125457763672
            ],
            "translation" : [
                -3.4925923347473145,
                0.9908055663108826,
                3.492417812347412
            ]
        },
        {
            "mesh" : 6,
            "name" : "Curve.002",
            "scale" : [
                25.098125457763672,
                25.098125457763672,
                25.098125457763672
            ],
            "translation" : [
                -3.4925923347473145,
                0.9908055663108826,
                3.492417812347412
            ]
        },
        {
            "mesh" : 7,
            "name" : "Curve.003",
            "scale" : [
                25.098125457763672,
                25.098125457763672,
                25.098125457763672
            ],
            "translation" : [
                -3.4925923347473145,
                0.9908055663108826,
                3.492417812347412
            ]
        }
    ],
    "materials" : [
        {
            "doubleSided" : true,
            "name" : "SVGMat.004",
            "pbrMetallicRoughness" : {
                "baseColorFactor" : [
                    0.0021246301475912333,
                    0.014443805441260338,
                    0.07618539035320282,
                    1
                ],
                "metallicFactor" : 0,
                "roughnessFactor" : 0
            }
        },
        {
            "doubleSided" : true,
            "name" : "Material.002",
            "pbrMetallicRoughness" : {
                "baseColorFactor" : [
                    0.8387988805770874,
                    0.26635515689849854,
                    0.47932007908821106,
                    1
                ],
                "metallicFactor" : 0,
                "roughnessFactor" : 0.4000000059604645
            }
        }
    ],
    "meshes" : [
        {
            "name" : "Curve.004",
            "primitives" : [
                {
                    "attributes" : {
                        "POSITION" : 0,
                        "TEXCOORD_0" : 1,
                        "NORMAL" : 2
                    },
                    "indices" : 3,
                    "material" : 0
                }
            ]
        },
        {
            "name" : "Curve.005",
            "primitives" : [
                {
                    "attributes" : {
                        "POSITION" : 4,
                        "TEXCOORD_0" : 5,
                        "NORMAL" : 6
                    },
                    "indices" : 7,
                    "material" : 0
                }
            ]
        },
        {
            "name" : "Curve.006",
            "primitives" : [
                {
                    "attributes" : {
                        "POSITION" : 8,
                        "TEXCOORD_0" : 9,
                        "NORMAL" : 10
                    },
                    "indices" : 11,
                    "material" : 0
                }
            ]
        },
        {
            "name" : "Curve.007",
            "primitives" : [
                {
                    "attributes" : {
                        "POSITION" : 12,
                        "TEXCOORD_0" : 13,
                        "NORMAL" : 14
                    },
                    "indices" : 15,
                    "material" : 0
                }
            ]
        },
        {
            "name" : "Curve",
            "primitives" : [
                {
                    "attributes" : {
                        "POSITION" : 16,
                        "TEXCOORD_0" : 17,
                        "NORMAL" : 18
                    },
                    "indices" : 19,
                    "material" : 1
                }
            ]
        },
        {
            "name" : "Curve.001",
            "primitives" : [
                {
                    "attributes" : {
                        "POSITION" : 20,
                        "TEXCOORD_0" : 21,
                        "NORMAL" : 22
                    },
                    "indices" : 23,
                    "material" : 1
                }
            ]
        },
        {
            "name" : "Curve.002",
            "primitives" : [
                {
                    "attributes" : {
                        "POSITION" : 24,
                        "TEXCOORD_0" : 25,
                        "NORMAL" : 26
                    },
                    "indices" : 27,
                    "material" : 1
                }
            ]
        },
        {
            "name" : "Curve.003",
            "primitives" : [
                {
                    "attributes" : {
                        "POSITION" : 28,
                        "TEXCOORD_0" : 29,
                        "NORMAL" : 30
                    },
                    "indices" : 31,
                    "material" : 1
                }
            ]
        }
    ],
    "accessors" : [
        {
            "bufferView" : 0,
            "componentType" : 5126,
            "count" : 654,
            "max" : [
                0.20334002375602722,
                0.020539555698633194,
                -0.05389699339866638
            ],
            "min" : [
                0.14306701719760895,
                0,
                -0.12783920764923096
            ],
            "type" : "VEC3"
        },
        {
            "bufferView" : 1,
            "componentType" : 5126,
            "count" : 654,
            "type" : "VEC2"
        },
        {
            "bufferView" : 2,
            "componentType" : 5126,
            "count" : 654,
            "type" : "VEC3"
        },
        {
            "bufferView" : 3,
            "componentType" : 5123,
            "count" : 1008,
            "type" : "SCALAR"
        },
        {
            "bufferView" : 4,
            "componentType" : 5126,
            "count" : 1653,
            "max" : [
                0.23119309544563293,
                0.020539555698633194,
                -0.1028447300195694
            ],
            "min" : [
                0.1024741604924202,
                0,
                -0.23165082931518555
            ],
            "type" : "VEC3"
        },
        {
            "bufferView" : 5,
            "componentType" : 5126,
            "count" : 1653,
            "type" : "VEC2"
        },
        {
            "bufferView" : 6,
            "componentType" : 5126,
            "count" : 1653,
            "type" : "VEC3"
        },
        {
            "bufferView" : 7,
            "componentType" : 5123,
            "count" : 2592,
            "type" : "SCALAR"
        },
        {
            "bufferView" : 8,
            "componentType" : 5126,
            "count" : 845,
            "max" : [
                0.11822530627250671,
                0.020539555698633194,
                -0.050279587507247925
            ],
            "min" : [
                0.050518810749053955,
                0,
                -0.11797459423542023
            ],
            "type" : "VEC3"
        },
        {
            "bufferView" : 9,
            "componentType" : 5126,
            "count" : 845,
            "type" : "VEC2"
        },
        {
            "bufferView" : 10,
            "componentType" : 5126,
            "count" : 845,
            "type" : "VEC3"
        },
        {
            "bufferView" : 11,
            "componentType" : 5123,
            "count" : 1284,
            "type" : "SCALAR"
        },
        {
            "bufferView" : 12,
            "componentType" : 5126,
            "count" : 546,
            "max" : [
                0.12747108936309814,
                0.020539555698633194,
                -0.14363500475883484
            ],
            "min" : [
                0.053307224065065384,
                0,
                -0.20378144085407257
            ],
            "type" : "VEC3"
        },
        {
            "bufferView" : 13,
            "componentType" : 5126,
            "count" : 546,
            "type" : "VEC2"
        },
        {
            "bufferView" : 14,
            "componentType" : 5126,
            "count" : 546,
            "type" : "VEC3"
        },
        {
            "bufferView" : 15,
            "componentType" : 5123,
            "count" : 864,
            "type" : "SCALAR"
        },
        {
            "bufferView" : 16,
            "componentType" : 5126,
            "count" : 814,
            "max" : [
                0.12747108936309814,
                0.001000000280328095,
                -0.14363500475883484
            ],
            "min" : [
                0.053307224065065384,
                -0.001000000280328095,
                -0.20378144085407257
            ],
            "type" : "VEC3"
        },
        {
            "bufferView" : 17,
            "componentType" : 5126,
            "count" : 814,
            "type" : "VEC2"
        },
        {
            "bufferView" : 18,
            "componentType" : 5126,
            "count" : 814,
            "type" : "VEC3"
        },
        {
            "bufferView" : 19,
            "componentType" : 5123,
            "count" : 4380,
            "type" : "SCALAR"
        },
        {
            "bufferView" : 20,
            "componentType" : 5126,
            "count" : 1067,
            "max" : [
                0.11822530627250671,
                0.001000000280328095,
                -0.050279587507247925
            ],
            "min" : [
                0.050518810749053955,
                -0.001000000280328095,
                -0.11797459423542023
            ],
            "type" : "VEC3"
        },
        {
            "bufferView" : 21,
            "componentType" : 5126,
            "count" : 1067,
            "type" : "VEC2"
        },
        {
            "bufferView" : 22,
            "componentType" : 5126,
            "count" : 1067,
            "type" : "VEC3"
        },
        {
            "bufferView" : 23,
            "componentType" : 5123,
            "count" : 5760,
            "type" : "SCALAR"
        },
        {
            "bufferView" : 24,
            "componentType" : 5126,
            "count" : 2266,
            "max" : [
                0.23119309544563293,
                0.001000000280328095,
                -0.1028447300195694
            ],
            "min" : [
                0.1024741604924202,
                -0.001000000280328095,
                -0.23165082931518555
            ],
            "type" : "VEC3"
        },
        {
            "bufferView" : 25,
            "componentType" : 5126,
            "count" : 2266,
            "type" : "VEC2"
        },
        {
            "bufferView" : 26,
            "componentType" : 5126,
            "count" : 2266,
            "type" : "VEC3"
        },
        {
            "bufferView" : 27,
            "componentType" : 5123,
            "count" : 12240,
            "type" : "SCALAR"
        },
        {
            "bufferView" : 28,
            "componentType" : 5126,
            "count" : 814,
            "max" : [
                0.20334002375602722,
                0.001000000280328095,
                -0.05389699339866638
            ],
            "min" : [
                0.14306701719760895,
                -0.001000000280328095,
                -0.12783639132976532
            ],
            "type" : "VEC3"
        },
        {
            "bufferView" : 29,
            "componentType" : 5126,
            "count" : 814,
            "type" : "VEC2"
        },
        {
            "bufferView" : 30,
            "componentType" : 5126,
            "count" : 814,
            "type" : "VEC3"
        },
        {
            "bufferView" : 31,
            "componentType" : 5123,
            "count" : 4380,
            "type" : "SCALAR"
        }
    ],
    "bufferViews" : [
        {
            "buffer" : 0,
            "byteLength" : 7848,
            "byteOffset" : 0,
            "target" : 34962
        },
        {
            "buffer" : 0,
            "byteLength" : 5232,
            "byteOffset" : 7848,
            "target" : 34962
        },
        {
            "buffer" : 0,
            "byteLength" : 7848,
            "byteOffset" : 13080,
            "target" : 34962
        },
        {
            "buffer" : 0,
            "byteLength" : 2016,
            "byteOffset" : 20928,
            "target" : 34963
        },
        {
            "buffer" : 0,
            "byteLength" : 19836,
            "byteOffset" : 22944,
            "target" : 34962
        },
        {
            "buffer" : 0,
            "byteLength" : 13224,
            "byteOffset" : 42780,
            "target" : 34962
        },
        {
            "buffer" : 0,
            "byteLength" : 19836,
            "byteOffset" : 56004,
            "target" : 34962
        },
        {
            "buffer" : 0,
            "byteLength" : 5184,
            "byteOffset" : 75840,
            "target" : 34963
        },
        {
            "buffer" : 0,
            "byteLength" : 10140,
            "byteOffset" : 81024,
            "target" : 34962
        },
        {
            "buffer" : 0,
            "byteLength" : 6760,
            "byteOffset" : 91164,
            "target" : 34962
        },
        {
            "buffer" : 0,
            "byteLength" : 10140,
            "byteOffset" : 97924,
            "target" : 34962
        },
        {
            "buffer" : 0,
            "byteLength" : 2568,
            "byteOffset" : 108064,
            "target" : 34963
        },
        {
            "buffer" : 0,
            "byteLength" : 6552,
            "byteOffset" : 110632,
            "target" : 34962
        },
        {
            "buffer" : 0,
            "byteLength" : 4368,
            "byteOffset" : 117184,
            "target" : 34962
        },
        {
            "buffer" : 0,
            "byteLength" : 6552,
            "byteOffset" : 121552,
            "target" : 34962
        },
        {
            "buffer" : 0,
            "byteLength" : 1728,
            "byteOffset" : 128104,
            "target" : 34963
        },
        {
            "buffer" : 0,
            "byteLength" : 9768,
            "byteOffset" : 129832,
            "target" : 34962
        },
        {
            "buffer" : 0,
            "byteLength" : 6512,
            "byteOffset" : 139600,
            "target" : 34962
        },
        {
            "buffer" : 0,
            "byteLength" : 9768,
            "byteOffset" : 146112,
            "target" : 34962
        },
        {
            "buffer" : 0,
            "byteLength" : 8760,
            "byteOffset" : 155880,
            "target" : 34963
        },
        {
            "buffer" : 0,
            "byteLength" : 12804,
            "byteOffset" : 164640,
            "target" : 34962
        },
        {
            "buffer" : 0,
            "byteLength" : 8536,
            "byteOffset" : 177444,
            "target" : 34962
        },
        {
            "buffer" : 0,
            "byteLength" : 12804,
            "byteOffset" : 185980,
            "target" : 34962
        },
        {
            "buffer" : 0,
            "byteLength" : 11520,
            "byteOffset" : 198784,
            "target" : 34963
        },
        {
            "buffer" : 0,
            "byteLength" : 27192,
            "byteOffset" : 210304,
            "target" : 34962
        },
        {
            "buffer" : 0,
            "byteLength" : 18128,
            "byteOffset" : 237496,
            "target" : 34962
        },
        {
            "buffer" : 0,
            "byteLength" : 27192,
            "byteOffset" : 255624,
            "target" : 34962
        },
        {
            "buffer" : 0,
            "byteLength" : 24480,
            "byteOffset" : 282816,
            "target" : 34963
        },
        {
            "buffer" : 0,
            "byteLength" : 9768,
            "byteOffset" : 307296,
            "target" : 34962
        },
        {
            "buffer" : 0,
            "byteLength" : 6512,
            "byteOffset" : 317064,
            "target" : 34962
        },
        {
            "buffer" : 0,
            "byteLength" : 9768,
            "byteOffset" : 323576,
            "target" : 34962
        },
        {
            "buffer" : 0,
            "byteLength" : 8760,
            "byteOffset" : 333344,
            "target" : 34963
        }
    ],
    "buffers" : [
        {
            "byteLength" : 342104,
            "uri" : "data:application/octet-stream;base64,"
        }
    ]
}
