{
    "asset" : {
        "generator" : "Khronos glTF Blender I/O v3.4.49",
        "version" : "2.0"
    },
    "scene" : 0,
    "scenes" : [
        {
            "name" : "Scene",
            "nodes" : [
                0,
                1
            ]
        }
    ],
    "nodes" : [
        {
            "mesh" : 0,
            "name" : "Curve",
            "rotation" : [
                0,
                -0.09931020438671112,
                0,
                0.9950565099716187
            ],
            "scale" : [
                25.502208709716797,
                25.502206802368164,
                25.502208709716797
            ],
            "translation" : [
                -0.2869405150413513,
                0.785431981086731,
                -0.24115169048309326
            ]
        },
        {
            "mesh" : 1,
            "name" : "Curve.001",
            "scale" : [
                25.376190185546875,
                25.376190185546875,
                25.376190185546875
            ]
        }
    ],
    "materials" : [
        {
            "doubleSided" : true,
            "name" : "Material.002",
            "pbrMetallicRoughness" : {
                "baseColorFactor" : [
                    0.8387988805770874,
                    0.26635515689849854,
                    0.47932007908821106,
                    1
                ],
                "metallicFactor" : 0,
                "roughnessFactor" : 0.4000000059604645
            }
        },
        {
            "doubleSided" : true,
            "name" : "Material.004",
            "pbrMetallicRoughness" : {
                "metallicFactor" : 0,
                "roughnessFactor" : 0.5
            }
        }
    ],
    "meshes" : [
        {
            "name" : "Curve",
            "primitives" : [
                {
                    "attributes" : {
                        "POSITION" : 0,
                        "TEXCOORD_0" : 1,
                        "NORMAL" : 2
                    },
                    "indices" : 3,
                    "material" : 0
                }
            ]
        },
        {
            "name" : "Curve.002",
            "primitives" : [
                {
                    "attributes" : {
                        "POSITION" : 4,
                        "TEXCOORD_0" : 5,
                        "NORMAL" : 6
                    },
                    "indices" : 7,
                    "material" : 1
                }
            ]
        }
    ],
    "accessors" : [
        {
            "bufferView" : 0,
            "componentType" : 5126,
            "count" : 2827,
            "max" : [
                0.1115511804819107,
                0.0010000003967434168,
                0.11403322219848633
            ],
            "min" : [
                -0.11337568610906601,
                -0.0010000003967434168,
                -0.11169595271348953
            ],
            "type" : "VEC3"
        },
        {
            "bufferView" : 1,
            "componentType" : 5126,
            "count" : 2827,
            "type" : "VEC2"
        },
        {
            "bufferView" : 2,
            "componentType" : 5126,
            "count" : 2827,
            "type" : "VEC3"
        },
        {
            "bufferView" : 3,
            "componentType" : 5123,
            "count" : 15300,
            "type" : "SCALAR"
        },
        {
            "bufferView" : 4,
            "componentType" : 5126,
            "count" : 1925,
            "max" : [
                0.1115511804819107,
                0.019215518608689308,
                0.11403322219848633
            ],
            "min" : [
                -0.11337568610906601,
                0,
                -0.11169595271348953
            ],
            "type" : "VEC3"
        },
        {
            "bufferView" : 5,
            "componentType" : 5126,
            "count" : 1925,
            "type" : "VEC2"
        },
        {
            "bufferView" : 6,
            "componentType" : 5126,
            "count" : 1925,
            "type" : "VEC3"
        },
        {
            "bufferView" : 7,
            "componentType" : 5123,
            "count" : 3060,
            "type" : "SCALAR"
        }
    ],
    "bufferViews" : [
        {
            "buffer" : 0,
            "byteLength" : 33924,
            "byteOffset" : 0,
            "target" : 34962
        },
        {
            "buffer" : 0,
            "byteLength" : 22616,
            "byteOffset" : 33924,
            "target" : 34962
        },
        {
            "buffer" : 0,
            "byteLength" : 33924,
            "byteOffset" : 56540,
            "target" : 34962
        },
        {
            "buffer" : 0,
            "byteLength" : 30600,
            "byteOffset" : 90464,
            "target" : 34963
        },
        {
            "buffer" : 0,
            "byteLength" : 23100,
            "byteOffset" : 121064,
            "target" : 34962
        },
        {
            "buffer" : 0,
            "byteLength" : 15400,
            "byteOffset" : 144164,
            "target" : 34962
        },
        {
            "buffer" : 0,
            "byteLength" : 23100,
            "byteOffset" : 159564,
            "target" : 34962
        },
        {
            "buffer" : 0,
            "byteLength" : 6120,
            "byteOffset" : 182664,
            "target" : 34963
        }
    ],
    "buffers" : [
        {
            "byteLength" : 188784,
            "uri" : "data:application/octet-stream;base64,"
        }
    ]
}
