{
    "asset" : {
        "generator" : "Khronos glTF Blender I/O v3.4.49",
        "version" : "2.0"
    },
    "scene" : 0,
    "scenes" : [
        {
            "name" : "Scene",
            "nodes" : [
                0,
                1
            ]
        }
    ],
    "nodes" : [
        {
            "mesh" : 0,
            "name" : "Curve.001",
            "scale" : [
                121.78119659423828,
                121.78119659423828,
                121.78119659423828
            ]
        },
        {
            "mesh" : 1,
            "name" : "Curve",
            "scale" : [
                121.78119659423828,
                121.78119659423828,
                121.78119659423828
            ],
            "translation" : [
                0,
                0.6459205746650696,
                0
            ]
        }
    ],
    "materials" : [
        {
            "doubleSided" : true,
            "name" : "SVGMat.004",
            "pbrMetallicRoughness" : {
                "baseColorFactor" : [
                    0,
                    0,
                    0,
                    1
                ],
                "metallicFactor" : 0,
                "roughnessFactor" : 0.4000000059604645
            }
        },
        {
            "doubleSided" : true,
            "name" : "Material.002",
            "pbrMetallicRoughness" : {
                "baseColorFactor" : [
                    0.8000000715255737,
                    0,
                    0.7268322110176086,
                    1
                ],
                "metallicFactor" : 0,
                "roughnessFactor" : 0.5
            }
        }
    ],
    "meshes" : [
        {
            "name" : "Curve.003",
            "primitives" : [
                {
                    "attributes" : {
                        "POSITION" : 0,
                        "TEXCOORD_0" : 1,
                        "NORMAL" : 2
                    },
                    "indices" : 3,
                    "material" : 0
                }
            ]
        },
        {
            "name" : "Curve.001",
            "primitives" : [
                {
                    "attributes" : {
                        "POSITION" : 4,
                        "TEXCOORD_0" : 5,
                        "NORMAL" : 6
                    },
                    "indices" : 7,
                    "material" : 1
                }
            ]
        }
    ],
    "accessors" : [
        {
            "bufferView" : 0,
            "componentType" : 5126,
            "count" : 1458,
            "max" : [
                0.024017196148633957,
                0.003002575831487775,
                0.01061409991234541
            ],
            "min" : [
                -0.02395874261856079,
                0,
                -0.010963317938148975
            ],
            "type" : "VEC3"
        },
        {
            "bufferView" : 1,
            "componentType" : 5126,
            "count" : 1458,
            "type" : "VEC2"
        },
        {
            "bufferView" : 2,
            "componentType" : 5126,
            "count" : 1458,
            "type" : "VEC3"
        },
        {
            "bufferView" : 3,
            "componentType" : 5123,
            "count" : 2103,
            "type" : "SCALAR"
        },
        {
            "bufferView" : 4,
            "componentType" : 5126,
            "count" : 4598,
            "max" : [
                0.02411738969385624,
                9.848078479990363e-05,
                0.02173146978020668
            ],
            "min" : [
                -0.024058939889073372,
                -9.848078479990363e-05,
                -0.014701984822750092
            ],
            "type" : "VEC3"
        },
        {
            "bufferView" : 5,
            "componentType" : 5126,
            "count" : 4598,
            "type" : "VEC2"
        },
        {
            "bufferView" : 6,
            "componentType" : 5126,
            "count" : 4598,
            "type" : "VEC3"
        },
        {
            "bufferView" : 7,
            "componentType" : 5123,
            "count" : 26028,
            "type" : "SCALAR"
        }
    ],
    "bufferViews" : [
        {
            "buffer" : 0,
            "byteLength" : 17496,
            "byteOffset" : 0,
            "target" : 34962
        },
        {
            "buffer" : 0,
            "byteLength" : 11664,
            "byteOffset" : 17496,
            "target" : 34962
        },
        {
            "buffer" : 0,
            "byteLength" : 17496,
            "byteOffset" : 29160,
            "target" : 34962
        },
        {
            "buffer" : 0,
            "byteLength" : 4206,
            "byteOffset" : 46656,
            "target" : 34963
        },
        {
            "buffer" : 0,
            "byteLength" : 55176,
            "byteOffset" : 50864,
            "target" : 34962
        },
        {
            "buffer" : 0,
            "byteLength" : 36784,
            "byteOffset" : 106040,
            "target" : 34962
        },
        {
            "buffer" : 0,
            "byteLength" : 55176,
            "byteOffset" : 142824,
            "target" : 34962
        },
        {
            "buffer" : 0,
            "byteLength" : 52056,
            "byteOffset" : 198000,
            "target" : 34963
        }
    ],
    "buffers" : [
        {
            "byteLength" : 250056,
            "uri" : "data:application/octet-stream;base64,"
        }
    ]
}
