{
    "asset" : {
        "generator" : "Khronos glTF Blender I/O v3.4.49",
        "version" : "2.0"
    },
    "scene" : 0,
    "scenes" : [
        {
            "name" : "Scene",
            "nodes" : [
                0,
                1,
                2
            ]
        }
    ],
    "nodes" : [
        {
            "mesh" : 0,
            "name" : "Curve.001",
            "scale" : [
                597.3848876953125,
                597.3848876953125,
                597.3848876953125
            ],
            "translation" : [
                0,
                0.5236315131187439,
                0
            ]
        },
        {
            "mesh" : 1,
            "name" : "Curve.002",
            "scale" : [
                597.3848876953125,
                597.3848876953125,
                597.3848876953125
            ],
            "translation" : [
                0,
                1.0850660800933838,
                0
            ]
        },
        {
            "mesh" : 2,
            "name" : "Curve",
            "scale" : [
                597.3848876953125,
                597.3848876953125,
                597.3848876953125
            ]
        }
    ],
    "materials" : [
        {
            "doubleSided" : true,
            "name" : "SVGMat.001",
            "pbrMetallicRoughness" : {
                "baseColorFactor" : [
                    0,
                    0,
                    0,
                    1
                ],
                "metallicFactor" : 0,
                "roughnessFactor" : 0.4000000059604645
            }
        },
        {
            "doubleSided" : true,
            "name" : "SVGMat.002",
            "pbrMetallicRoughness" : {
                "baseColorFactor" : [
                    0,
                    0,
                    0,
                    1
                ],
                "metallicFactor" : 0,
                "roughnessFactor" : 0.4000000059604645
            }
        },
        {
            "doubleSided" : true,
            "name" : "SVGMat",
            "pbrMetallicRoughness" : {
                "baseColorFactor" : [
                    0,
                    0,
                    0,
                    1
                ],
                "metallicFactor" : 0,
                "roughnessFactor" : 0.4000000059604645
            }
        }
    ],
    "meshes" : [
        {
            "name" : "Curve.001",
            "primitives" : [
                {
                    "attributes" : {
                        "POSITION" : 0,
                        "TEXCOORD_0" : 1,
                        "NORMAL" : 2
                    },
                    "indices" : 3,
                    "material" : 0
                }
            ]
        },
        {
            "name" : "Curve.002",
            "primitives" : [
                {
                    "attributes" : {
                        "POSITION" : 4,
                        "TEXCOORD_0" : 5,
                        "NORMAL" : 6
                    },
                    "indices" : 3,
                    "material" : 1
                }
            ]
        },
        {
            "name" : "Curve",
            "primitives" : [
                {
                    "attributes" : {
                        "POSITION" : 7,
                        "TEXCOORD_0" : 8,
                        "NORMAL" : 9
                    },
                    "indices" : 3,
                    "material" : 2
                }
            ]
        }
    ],
    "accessors" : [
        {
            "bufferView" : 0,
            "componentType" : 5126,
            "count" : 1503,
            "max" : [
                0.005270607303828001,
                0.0003174507000949234,
                0.005242973566055298
            ],
            "min" : [
                -0.004931936971843243,
                0,
                -0.004957407712936401
            ],
            "type" : "VEC3"
        },
        {
            "bufferView" : 1,
            "componentType" : 5126,
            "count" : 1503,
            "type" : "VEC2"
        },
        {
            "bufferView" : 2,
            "componentType" : 5126,
            "count" : 1503,
            "type" : "VEC3"
        },
        {
            "bufferView" : 3,
            "componentType" : 5123,
            "count" : 2067,
            "type" : "SCALAR"
        },
        {
            "bufferView" : 4,
            "componentType" : 5126,
            "count" : 1503,
            "max" : [
                0.005270607303828001,
                0.0003174507000949234,
                0.005242973566055298
            ],
            "min" : [
                -0.004931936971843243,
                0,
                -0.004957407712936401
            ],
            "type" : "VEC3"
        },
        {
            "bufferView" : 5,
            "componentType" : 5126,
            "count" : 1503,
            "type" : "VEC2"
        },
        {
            "bufferView" : 6,
            "componentType" : 5126,
            "count" : 1503,
            "type" : "VEC3"
        },
        {
            "bufferView" : 7,
            "componentType" : 5126,
            "count" : 1503,
            "max" : [
                0.005270607303828001,
                0.0003174507000949234,
                0.005242973566055298
            ],
            "min" : [
                -0.004931936971843243,
                0,
                -0.004957407712936401
            ],
            "type" : "VEC3"
        },
        {
            "bufferView" : 8,
            "componentType" : 5126,
            "count" : 1503,
            "type" : "VEC2"
        },
        {
            "bufferView" : 9,
            "componentType" : 5126,
            "count" : 1503,
            "type" : "VEC3"
        }
    ],
    "bufferViews" : [
        {
            "buffer" : 0,
            "byteLength" : 18036,
            "byteOffset" : 0,
            "target" : 34962
        },
        {
            "buffer" : 0,
            "byteLength" : 12024,
            "byteOffset" : 18036,
            "target" : 34962
        },
        {
            "buffer" : 0,
            "byteLength" : 18036,
            "byteOffset" : 30060,
            "target" : 34962
        },
        {
            "buffer" : 0,
            "byteLength" : 4134,
            "byteOffset" : 48096,
            "target" : 34963
        },
        {
            "buffer" : 0,
            "byteLength" : 18036,
            "byteOffset" : 52232,
            "target" : 34962
        },
        {
            "buffer" : 0,
            "byteLength" : 12024,
            "byteOffset" : 70268,
            "target" : 34962
        },
        {
            "buffer" : 0,
            "byteLength" : 18036,
            "byteOffset" : 82292,
            "target" : 34962
        },
        {
            "buffer" : 0,
            "byteLength" : 18036,
            "byteOffset" : 100328,
            "target" : 34962
        },
        {
            "buffer" : 0,
            "byteLength" : 12024,
            "byteOffset" : 118364,
            "target" : 34962
        },
        {
            "buffer" : 0,
            "byteLength" : 18036,
            "byteOffset" : 130388,
            "target" : 34962
        }
    ],
    "buffers" : [
        {
            "byteLength" : 148424,
            "uri" : "data:application/octet-stream;base64,"
        }
    ]
}
